<?xml version="1.0" encoding="UTF-8" standalone="no"?>
<svg
   viewBox="0 0 48 48"
   version="1.1"
   id="svg29"
   sodipodi:docname="hexedit.svg"
   inkscape:version="1.3 (0e150ed6c4, 2023-07-21)"
   xmlns:inkscape="http://www.inkscape.org/namespaces/inkscape"
   xmlns:sodipodi="http://sodipodi.sourceforge.net/DTD/sodipodi-0.dtd"
   xmlns="http://www.w3.org/2000/svg"
   xmlns:svg="http://www.w3.org/2000/svg">
  <sodipodi:namedview
     id="namedview29"
     pagecolor="#505050"
     bordercolor="#ffffff"
     borderopacity="1"
     inkscape:showpageshadow="0"
     inkscape:pageopacity="0"
     inkscape:pagecheckerboard="1"
     inkscape:deskcolor="#d1d1d1"
     showgrid="false"
     inkscape:zoom="14.583333"
     inkscape:cx="23.965714"
     inkscape:cy="24"
     inkscape:window-width="1920"
     inkscape:window-height="970"
     inkscape:window-x="0"
     inkscape:window-y="32"
     inkscape:window-maximized="1"
     inkscape:current-layer="svg29" />
  <defs
     id="defs1">
    <style
       id="style1">.a{fill:none;stroke:#000;stroke-linecap:round;stroke-linejoin:round;}</style>
  </defs>
  <path
     class="a"
     d="M39.18,21.2519V15.5h-9a2,2,0,0,1-2-2v-9h-18a2,2,0,0,0-2,2v35a2,2,0,0,0,2,2h27a2,2,0,0,0,2-2V31.7834"
     id="path1" />
  <line
     class="a"
     x1="28.1799"
     y1="4.5"
     x2="39.1799"
     y2="15.5"
     id="line1" />
  <path
     class="a"
     d="M44.5861,18.0282a2.8444,2.8444,0,0,0-3.9051.8665L31.5655,33.2092,30.9127,39.5l5.4243-3.2523,9.1156-14.3145A3.0885,3.0885,0,0,0,44.5861,18.0282Z"
     id="path2" />
  <path
     class="a"
     d="M31.5655,33.2092l4.7715,3.0385"
     id="path3" />
  <line
     class="a"
     x1="11.9799"
     y1="39.4"
     x2="15.3799"
     y2="39.4"
     id="line3" />
  <line
     class="a"
     x1="11.9799"
     y1="32.6"
     x2="15.3799"
     y2="32.6"
     id="line4" />
  <line
     class="a"
     x1="11.9799"
     y1="36"
     x2="14.1967"
     y2="36"
     id="line5" />
  <line
     class="a"
     x1="11.9799"
     y1="32.6"
     x2="11.9799"
     y2="39.4"
     id="line6" />
  <line
     class="a"
     x1="17.5799"
     y1="39.4"
     x2="20.9799"
     y2="39.4"
     id="line7" />
  <line
     class="a"
     x1="17.5799"
     y1="32.6"
     x2="20.9799"
     y2="32.6"
     id="line8" />
  <line
     class="a"
     x1="17.5799"
     y1="36"
     x2="19.7967"
     y2="36"
     id="line9" />
  <line
     class="a"
     x1="17.5799"
     y1="32.6"
     x2="17.5799"
     y2="39.4"
     id="line10" />
  <line
     class="a"
     x1="26.1799"
     y1="32.6"
     x2="29.5799"
     y2="32.6"
     id="line11" />
  <line
     class="a"
     x1="26.1799"
     y1="36"
     x2="28.3967"
     y2="36"
     id="line12" />
  <line
     class="a"
     x1="26.1799"
     y1="32.6"
     x2="26.1799"
     y2="39.4"
     id="line13" />
  <line
     class="a"
     x1="26.1799"
     y1="8.5401"
     x2="28.1799"
     y2="8.5401"
     id="line14" />
  <line
     class="a"
     x1="26.1799"
     y1="11.9401"
     x2="28.1799"
     y2="11.9401"
     id="line15" />
  <line
     class="a"
     x1="26.1799"
     y1="8.5401"
     x2="26.1799"
     y2="15.3401"
     id="line16" />
  <line
     class="a"
     x1="11.6799"
     y1="15.2798"
     x2="13.7223"
     y2="8.5"
     id="line17" />
  <line
     class="a"
     x1="15.6799"
     y1="15.3"
     x2="13.7223"
     y2="8.5"
     id="line18" />
  <line
     class="a"
     x1="15.0251"
     y1="13.0253"
     x2="12.3591"
     y2="13.0253"
     id="line19" />
  <line
     class="a"
     x1="17.2799"
     y1="15.3199"
     x2="19.3223"
     y2="8.5401"
     id="line20" />
  <line
     class="a"
     x1="21.2799"
     y1="15.3401"
     x2="19.3223"
     y2="8.5401"
     id="line21" />
  <line
     class="a"
     x1="20.6251"
     y1="13.0654"
     x2="17.9591"
     y2="13.0654"
     id="line22" />
  <line
     class="a"
     x1="32.5011"
     y1="27.3298"
     x2="34.5434"
     y2="20.55"
     id="line23" />
  <line
     class="a"
     x1="36.1261"
     y1="26.0475"
     x2="34.5434"
     y2="20.55"
     id="line24" />
  <line
     class="a"
     x1="35.8462"
     y1="25.0753"
     x2="33.1802"
     y2="25.0753"
     id="line25" />
  <line
     class="a"
     x1="11.9799"
     y1="27.3399"
     x2="15.3799"
     y2="27.3399"
     id="line26" />
  <line
     class="a"
     x1="11.9799"
     y1="21.4655"
     x2="13.6799"
     y2="20.5399"
     id="line27" />
  <line
     class="a"
     x1="13.6799"
     y1="20.5399"
     x2="13.6799"
     y2="27.3399"
     id="line28" />
  <circle
     class="a"
     cx="19.8324"
     cy="25.0874"
     r="2.2525"
     id="circle28" />
  <path
     class="a"
     d="M21.8859,21.3692a2.2,2.2,0,0,0-1.8953-.8293h-.1582A2.2525,2.2525,0,0,0,17.58,22.7924v2.295"
     id="path28" />
  <path
     class="a"
     d="M26.18,22.7924a2.2525,2.2525,0,1,1,4.505,0,2.1016,2.1016,0,0,1-.66,1.5928c-.9112.8-3.8453,2.9547-3.8453,2.9547h4.505"
     id="path29" />
  <path
     style="fill:#c29f7b;stroke-width:0.999998;paint-order:stroke markers fill;fill-opacity:1"
     d="m 31.565268,38.245714 c 0.02072,-0.122571 0.121604,-1.071428 0.224184,-2.108571 0.102581,-1.037143 0.206669,-1.909208 0.231309,-1.937923 0.03628,-0.04228 3.055745,1.819829 3.24465,2.000979 0.04746,0.04551 -3.568863,2.268372 -3.690354,2.268372 -0.02611,0 -0.03051,-0.100285 -0.0098,-0.222857 z"
     id="path30" />
  <path
     style="fill:#e8d830;stroke-width:0.999998;paint-order:stroke markers fill;fill-opacity:1"
     d="m 34.249599,34.293078 c -1.054994,-0.673048 -1.912593,-1.252204 -1.905776,-1.287012 0.03207,-0.163786 8.905938,-14.008643 9.120134,-14.229085 0.374247,-0.385162 0.981371,-0.631332 1.564614,-0.634405 0.934885,-0.0049 1.585432,0.400393 2.001026,1.24672 0.174707,0.35578 0.19326,0.46268 0.19326,1.113561 0,0.6225 -0.02163,0.76053 -0.159694,1.019298 -0.142393,0.266873 -8.747915,13.822221 -8.852774,13.944817 -0.02344,0.02741 -0.905796,-0.500846 -1.96079,-1.173894 z"
     id="path31" />
  <path
     style="fill:#ffffff;stroke-width:0.999998;paint-order:stroke markers fill"
     d="M 9.8218693,42.927154 C 9.4292744,42.834034 9.0807899,42.548589 8.8884281,42.162569 L 8.7085714,41.801644 V 23.994367 6.1870891 L 8.9001752,5.8203176 C 9.0396631,5.5533072 9.182742,5.3973041 9.4262041,5.246773 L 9.7606292,5.04 18.697457,5.0216111 27.634286,5.0032223 v 1.5098174 1.5098174 h -0.825974 c -0.785532,0 -0.834215,0.00824 -0.994286,0.1683117 l -0.168312,0.1683117 v 3.5595835 c 0,3.497304 0.0025,3.562745 0.14212,3.74026 0.178079,0.226391 0.545126,0.247716 0.749309,0.04353 0.129016,-0.129016 0.137143,-0.228571 0.137143,-1.68 V 12.48 h 0.471371 0.471371 l 0.03324,0.771429 c 0.04463,1.035862 0.200949,1.446074 0.766589,2.011715 0.294234,0.294233 0.538855,0.466252 0.828858,0.582857 l 0.411429,0.165428 4.508571,0.01949 4.508572,0.01948 v 2.508565 2.508566 l -1.174832,1.845688 c -0.646157,1.015129 -1.183069,1.836935 -1.193137,1.826235 -0.01007,-0.0107 -0.301621,-1.006883 -0.647895,-2.21374 -0.661159,-2.304308 -0.748641,-2.502857 -1.102778,-2.502857 -0.384474,0 -0.436649,0.114424 -1.188149,2.605714 -1.438361,4.768295 -1.420468,4.703409 -1.348906,4.89163 0.115856,0.304726 0.527148,0.4196 0.796876,0.222567 0.08717,-0.06368 0.240701,-0.448213 0.444888,-1.114285 l 0.311781,-1.017054 0.937858,-0.01907 0.937859,-0.01907 0.04347,0.173198 c 0.02391,0.09526 0.02615,0.218327 0.005,0.273484 -0.02116,0.05516 -1.029289,1.657505 -2.240273,3.560775 l -2.201791,3.460491 -0.338248,3.245092 c -0.259108,2.485837 -0.321192,3.287132 -0.265345,3.424769 0.08657,0.213349 0.363955,0.356731 0.568657,0.29394 0.08052,-0.0247 1.396398,-0.794289 2.924165,-1.710198 l 2.777758,-1.665289 0.959385,-1.512167 0.959384,-1.512167 0.02089,3.923102 c 0.01486,2.791429 -0.0021,4.029991 -0.05871,4.293645 -0.105178,0.489666 -0.56477,0.97206 -1.040158,1.091765 -0.369033,0.09292 -27.349932,0.105974 -27.7401524,0.01342 z m 5.9445827,-3.199259 c 0.188528,-0.239675 0.179501,-0.47389 -0.02619,-0.679583 L 15.571948,38.88 H 14.025974 12.48 v -1.165714 -1.165715 h 0.930989 0.930989 l 0.20044,-0.200439 c 0.25353,-0.253531 0.25353,-0.442733 0,-0.696264 l -0.20044,-0.200439 H 13.410989 12.48 V 34.285714 33.12 h 1.545974 1.545974 l 0.168311,-0.168312 c 0.205694,-0.205693 0.214721,-0.439908 0.02619,-0.679583 l -0.14212,-0.180676 H 13.68 11.735668 l -0.14212,0.180676 C 11.45393,32.449601 11.451429,32.515204 11.451429,36 c 0,3.484796 0.0025,3.550399 0.142119,3.727895 l 0.14212,0.180676 H 13.68 15.624332 Z m 5.536169,0.07942 c 0.07951,-0.05569 0.164175,-0.179386 0.188141,-0.274877 0.05012,-0.199708 -0.103571,-0.545602 -0.270977,-0.609842 C 21.158734,38.899168 20.43245,38.88 19.60582,38.88 h -1.502963 v -1.160532 -1.160531 l 0.966217,-0.02233 c 0.919554,-0.02125 0.972539,-0.03014 1.097143,-0.184207 0.167206,-0.206741 0.167206,-0.498067 0,-0.704808 -0.124604,-0.154064 -0.177589,-0.16296 -1.097143,-0.184207 l -0.966217,-0.02233 V 34.280532 33.12 h 1.502963 c 0.82663,0 1.552914,-0.01917 1.613965,-0.04259 0.167406,-0.06424 0.321101,-0.410134 0.270977,-0.609842 -0.09094,-0.362339 -0.173003,-0.376134 -2.237448,-0.376134 -1.813314,0 -1.911325,0.0066 -2.041885,0.137142 -0.133693,0.133693 -0.137143,0.228572 -0.137143,3.771429 0,3.542857 0.0034,3.637736 0.137143,3.771429 0.13056,0.13056 0.228571,0.137142 2.041885,0.137142 1.568749,0 1.930243,-0.01786 2.049307,-0.101257 z m 5.234522,-0.03589 c 0.129016,-0.129016 0.137143,-0.228572 0.137143,-1.68 v -1.542858 h 0.930989 0.930989 l 0.200439,-0.200439 C 28.846945,36.23789 28.937143,36.081231 28.937143,36 c 0,-0.08123 -0.0902,-0.23789 -0.20044,-0.348132 L 28.536264,35.451429 H 27.605275 26.674286 V 34.285714 33.12 h 1.545973 1.545975 l 0.168311,-0.168312 c 0.205694,-0.205693 0.214721,-0.439908 0.02619,-0.679583 l -0.142119,-0.180676 h -1.944332 -1.944332 l -0.14212,0.180676 c -0.139633,0.177515 -0.14212,0.242955 -0.14212,3.740259 v 3.559584 l 0.168312,0.168311 c 0.20779,0.20779 0.5325,0.221786 0.723117,0.03117 z M 15.766452,27.659324 c 0.188528,-0.239675 0.179501,-0.47389 -0.02619,-0.679583 -0.15636,-0.156362 -0.217219,-0.168312 -0.857142,-0.168312 h -0.688831 v -3.235581 c 0,-3.227671 -3.64e-4,-3.235969 -0.149096,-3.394286 -0.08399,-0.0894 -0.229425,-0.158705 -0.333052,-0.158705 -0.183963,0 -2.043079,0.973872 -2.141316,1.121698 -0.202227,0.304312 -0.0954,0.666223 0.237325,0.804044 0.183477,0.076 0.249219,0.05824 0.744766,-0.201192 0.298939,-0.156503 0.559112,-0.28455 0.578163,-0.28455 0.01905,0 0.03464,1.203429 0.03464,2.674286 v 2.674286 h -0.688831 c -0.639923,0 -0.700781,0.01195 -0.857143,0.168312 -0.205693,0.205693 -0.21472,0.439908 -0.02619,0.679583 L 11.735668,27.84 H 13.68 15.624332 Z m 5.232914,-0.07259 c 1.720654,-0.81501 2.137778,-3.015748 0.835488,-4.408003 -0.376342,-0.402338 -0.981143,-0.723041 -1.564781,-0.829742 -0.632274,-0.115593 -1.471208,0.06871 -1.989682,0.437096 l -0.19961,0.141827 0.04404,-0.32132 c 0.0816,-0.595305 0.429142,-1.085712 0.971421,-1.370732 0.219125,-0.115172 0.400905,-0.145198 0.892327,-0.147392 0.69633,-0.0031 0.89635,0.07198 1.38704,0.520709 0.364079,0.332944 0.686022,0.362975 0.905126,0.08443 0.233459,-0.296794 0.184898,-0.490128 -0.222126,-0.884363 -0.565368,-0.547602 -1.025685,-0.73453 -1.898611,-0.771 -0.610843,-0.02552 -0.786711,-0.0075 -1.160028,0.118996 -0.778449,0.263729 -1.33474,0.756069 -1.704751,1.508773 l -0.18665,0.379698 v 1.885715 1.885714 l 0.183776,0.392096 c 0.21644,0.461787 0.719921,1.02332 1.136336,1.267356 0.483941,0.283608 0.822273,0.361831 1.491317,0.344794 0.532902,-0.01357 0.680237,-0.0456 1.079366,-0.234652 z m 10.041929,0.104167 c 0.19367,-0.181944 0.205126,-0.46404 0.02775,-0.683308 C 30.94,26.848073 30.915398,26.845214 29.380747,26.811429 l -1.557345,-0.03429 0.848299,-0.646424 c 1.370859,-1.044626 1.883706,-1.492909 2.104085,-1.839193 0.514806,-0.808925 0.563198,-1.833765 0.128151,-2.714023 -0.302426,-0.611916 -0.704052,-1.003341 -1.337335,-1.303364 -0.420259,-0.199102 -0.514578,-0.216879 -1.143745,-0.215575 -0.636581,0.0013 -0.719606,0.01789 -1.158724,0.231206 -0.780594,0.379205 -1.299002,1.003827 -1.511996,1.82178 -0.152803,0.586804 -0.13798,0.834555 0.06189,1.034424 0.391206,0.391206 0.808457,0.129133 0.922505,-0.57942 0.273168,-1.697117 2.448664,-2.045998 3.24777,-0.52084 0.104812,0.200041 0.144499,0.404214 0.146621,0.754286 0.0053,0.872091 -0.109454,0.996756 -2.713659,2.948392 -0.842352,0.631272 -1.585549,1.209265 -1.651549,1.284428 -0.159476,0.181615 -0.151564,0.4057 0.02212,0.626504 L 25.929954,27.84 h 2.476318 c 2.448118,0 2.478125,-0.0017 2.635023,-0.149096 z M 16.002181,15.69788 c 0.123758,-0.09735 0.180676,-0.207201 0.180676,-0.348709 0,-0.189999 -1.723744,-6.3134923 -1.958125,-6.9561168 -0.15721,-0.4310386 -0.51052,-0.5548195 -0.812003,-0.2844828 -0.142064,0.127387 -0.351943,0.7526339 -1.203824,3.5862906 -0.567469,1.887603 -1.031762,3.515318 -1.031762,3.617143 0,0.40523 0.582865,0.625354 0.856181,0.323344 0.06773,-0.07484 0.252756,-0.560844 0.411163,-1.08 l 0.288013,-0.94392 0.95375,-0.01842 0.95375,-0.01842 0.268255,0.944133 c 0.313223,1.102398 0.343456,1.172253 0.541942,1.252225 0.236835,0.09542 0.358205,0.07936 0.551984,-0.07307 z m 1.614706,0.01095 c 0.07214,-0.07215 0.212688,-0.403859 0.312318,-0.737143 0.09963,-0.333284 0.235989,-0.775685 0.30302,-0.983114 l 0.121873,-0.377142 0.933763,-0.01906 0.933764,-0.01905 0.145167,0.499055 C 20.885864,15.856837 20.87682,15.84 21.316229,15.84 c 0.215833,0 0.489485,-0.26138 0.489485,-0.467533 0,-0.09371 -1.587083,-5.6711227 -1.930073,-6.7827718 -0.135463,-0.4390418 -0.260143,-0.5668381 -0.553018,-0.5668381 -0.288957,0 -0.44463,0.1811125 -0.603267,0.7018539 -1.698556,5.575653 -1.988054,6.604389 -1.911124,6.7912 0.04308,0.104608 0.128277,0.219384 0.189332,0.255057 0.183385,0.107152 0.479769,0.07741 0.619323,-0.06214 z"
     id="path32" />
  <path
     style="fill:#ffffff;stroke-width:0.999998;paint-order:stroke markers fill"
     d="m 19.205865,26.69787 c -0.883684,-0.32434 -1.36378,-1.519229 -0.93982,-2.339077 0.419871,-0.811942 1.420432,-1.203601 2.221872,-0.869731 0.336319,0.140107 0.754441,0.5468 0.913037,0.888081 0.146234,0.314678 0.168915,0.884358 0.05089,1.278278 -0.10402,0.347189 -0.480632,0.78132 -0.834341,0.961769 -0.372492,0.190031 -1.013839,0.226686 -1.411641,0.08068 z"
     id="path33" />
  <path
     style="fill:#ffffff;stroke-width:0.999998;paint-order:stroke markers fill"
     d="m 13.097143,12.43508 c 0,-0.121969 0.580397,-1.943651 0.619257,-1.943651 0.02472,0 0.110973,0.239142 0.191677,0.531428 0.08071,0.292286 0.206797,0.739714 0.280204,0.994286 L 14.321749,12.48 h -0.612303 c -0.336767,0 -0.612303,-0.02021 -0.612303,-0.04492 z"
     id="path34" />
  <path
     style="fill:#ffffff;stroke-width:0.999998;paint-order:stroke markers fill"
     d="m 18.907115,11.742857 c 0.133089,-0.443143 0.277422,-0.927373 0.320738,-1.076067 l 0.07876,-0.270353 0.312603,1.076067 0.312604,1.076067 h -0.633342 -0.633342 z"
     id="path35" />
  <path
     style="fill:#ffffff;stroke-width:0.999998;paint-order:stroke markers fill"
     d="M 26.674286,10.217143 V 9.0514286 h 0.48 0.48 v 1.1657144 1.165714 h -0.48 -0.48 z"
     id="path36" />
  <path
     style="fill:#ffffff;stroke-width:0.999998;paint-order:stroke markers fill"
     d="m 34.129972,23.742857 c 0.13309,-0.443143 0.277695,-0.928315 0.321345,-1.07816 l 0.07936,-0.272447 0.288946,1.006196 c 0.15892,0.553407 0.288945,1.038579 0.288945,1.07816 0,0.04485 -0.229957,0.07196 -0.61029,0.07196 h -0.61029 z"
     id="path37" />
  <path
     style="fill:#ffffff;stroke-width:0.999998;paint-order:stroke markers fill"
     d="m 29.495437,14.800537 c -0.3366,-0.166612 -0.67313,-0.583835 -0.730593,-0.905775 -0.02108,-0.118119 -0.02951,-1.981427 -0.01873,-4.1406836 l 0.0196,-3.9259215 4.559807,4.5602071 4.559807,4.560207 -4.045521,-5.4e-5 c -4.005698,-5.3e-5 -4.048463,-0.0015 -4.34437,-0.14798 z"
     id="path38" />
</svg>
